<svg preserveAspectRatio="xMidYMid meet" viewBox="0 0 600.000000 100.000000" height="100.000000pt" width="600.000000pt" xmlns="http://www.w3.org/2000/svg" version="1.0">

<g stroke="none" fill="#000000" transform="translate(0.000000,100.000000) scale(0.100000,-0.100000)">
<path d="M1637 993 c-56 -9 -60 -77 -4 -91 l32 -8 0 -280 0 -279 -25 -3 c-14
-2 -29 -8 -34 -13 -6 -5 -14 -5 -20 0 -6 5 -22 11 -36 13 l-25 3 -6 210 c-3
116 -6 211 -7 213 -10 12 -166 -21 -190 -41 -7 -6 -12 -22 -10 -36 2 -19 11
-28 36 -35 l32 -9 0 -152 0 -153 -32 -4 c-43 -7 -98 9 -126 35 -27 25 -138
185 -131 190 2 2 25 18 52 36 104 71 117 198 28 274 -55 46 -102 55 -303 60
-207 5 -222 1 -216 -48 2 -25 9 -31 40 -39 24 -6 38 -16 42 -30 8 -28 7 -415
0 -443 -4 -15 -18 -24 -42 -30 -30 -7 -38 -14 -40 -36 -6 -52 7 -56 158 -56
151 0 164 4 158 56 -2 22 -10 29 -40 36 l-38 9 0 90 c0 86 1 89 22 86 14 -2
36 -26 65 -73 54 -89 116 -161 153 -180 40 -21 141 -30 168 -16 13 7 23 7 27
2 9 -16 243 -12 257 3 10 11 15 11 25 0 16 -16 242 -18 260 -2 16 13 17 50 1
66 -7 7 -22 12 -35 12 l-23 0 -2 333 -3 332 -70 1 c-38 1 -82 -1 -98 -3z
m-645 -163 c49 -14 78 -52 78 -102 0 -81 -44 -118 -142 -118 l-38 0 0 108 c0
60 3 112 7 115 9 10 53 8 95 -3z"></path>
<path d="M1385 965 c-68 -67 6 -162 103 -131 29 9 55 61 48 92 -17 65 -103 88
-151 39z"></path>
<path d="M3686 965 c-56 -52 -17 -135 64 -135 77 0 116 74 69 134 -28 36 -94
37 -133 1z"></path>
<path d="M2964 913 c-8 -9 -14 -27 -12 -41 2 -21 11 -29 43 -38 l40 -11 0
-239 0 -238 -35 -10 c-40 -11 -50 -22 -50 -53 0 -35 27 -42 167 -42 117 0 132
2 148 19 25 27 9 59 -35 74 l-35 11 -3 88 c-3 82 -2 87 18 87 15 0 36 -23 75
-84 65 -102 108 -152 147 -172 38 -20 163 -31 172 -15 5 7 13 8 25 2 9 -5 67
-10 129 -10 87 0 115 3 127 15 30 30 12 74 -31 74 -31 0 -34 19 -34 233 0 162
-2 188 -16 194 -21 8 -171 -27 -185 -43 -20 -24 -6 -58 29 -68 l32 -9 0 -152
0 -153 -32 -4 c-50 -8 -111 18 -145 60 -60 75 -116 166 -105 170 27 9 94 66
113 95 16 25 19 45 17 95 -4 57 -7 66 -43 102 -56 58 -99 68 -318 73 -159 4
-190 3 -203 -10z m328 -83 c52 -15 78 -52 78 -109 0 -26 -7 -56 -15 -68 -17
-25 -71 -43 -127 -43 l-38 0 0 109 c0 78 4 111 13 114 20 9 50 7 89 -3z"></path>
<path d="M2080 751 c-78 -25 -128 -70 -161 -145 -53 -121 -3 -286 103 -342 94
-49 208 -38 282 28 58 50 70 72 56 97 -20 38 -48 36 -88 -7 -81 -87 -200 -53
-219 62 l-6 36 104 0 c113 0 177 11 191 32 39 61 -6 180 -84 221 -42 21 -139
31 -178 18z m116 -105 c8 -14 14 -35 12 -48 -3 -21 -8 -23 -80 -26 -82 -3 -88
1 -67 41 23 44 42 57 80 57 30 0 42 -6 55 -24z"></path>
<path d="M4630 747 c-19 -6 -58 -34 -87 -62 -63 -61 -89 -136 -78 -219 19
-145 110 -229 250 -229 82 -1 134 21 183 78 40 44 42 81 6 97 -23 11 -28 8
-63 -29 -45 -50 -90 -62 -144 -39 -41 17 -77 67 -77 107 l0 27 129 4 c137 4
155 10 172 57 13 33 -13 118 -46 153 -14 15 -40 35 -57 44 -40 21 -142 27
-188 11z m136 -101 c8 -14 14 -35 12 -48 -3 -21 -8 -23 -80 -26 -72 -3 -78 -1
-78 17 0 11 12 33 26 50 34 41 95 44 120 7z"></path>
<path d="M5070 751 c-14 -5 -44 -14 -68 -20 -41 -11 -43 -14 -40 -44 2 -26 9
-34 36 -42 l32 -9 0 -153 c0 -144 -1 -153 -19 -153 -36 0 -51 -12 -51 -40 0
-15 6 -32 13 -38 7 -6 62 -11 130 -11 107 0 118 2 131 21 20 29 6 62 -30 68
l-29 5 0 140 0 139 33 19 c39 23 50 16 31 -19 -12 -23 -11 -27 6 -40 39 -29
98 -16 120 27 29 55 10 124 -40 147 -37 17 -55 15 -107 -11 -45 -23 -45 -23
-54 -2 -10 22 -52 29 -94 16z"></path>
<path d="M2382 741 c-19 -11 -11 -62 11 -72 9 -5 25 -13 35 -17 22 -11 47 -62
118 -245 l57 -147 -18 -41 c-20 -43 -70 -92 -89 -86 -6 2 -10 21 -8 45 3 32
-1 43 -17 51 -35 19 -71 13 -103 -19 -27 -27 -30 -36 -25 -71 9 -72 69 -114
148 -107 102 10 151 81 280 398 45 113 87 211 92 218 5 6 22 12 38 12 27 0 59
22 59 41 0 6 -5 19 -10 30 -10 17 -22 19 -118 19 -113 0 -132 -6 -132 -45 0
-26 18 -45 42 -45 10 0 18 -2 18 -4 0 -16 -78 -207 -82 -200 -3 5 -24 57 -47
115 -40 103 -68 142 -118 168 -25 13 -112 15 -131 2z"></path>
<path d="M3890 736 c-21 -27 -8 -60 29 -72 41 -13 46 -22 136 -244 l70 -175
44 0 45 0 75 191 c42 105 82 199 90 208 7 9 25 16 40 16 32 0 51 16 51 45 0
39 -19 45 -132 45 -98 0 -108 -2 -118 -20 -16 -30 -3 -60 29 -66 l28 -6 -38
-100 c-21 -55 -40 -102 -42 -104 -2 -2 -21 40 -42 94 -47 122 -74 165 -118
185 -44 21 -130 22 -147 3z"></path>
</g>
</svg>
